<?xml version="1.0" encoding="utf-8"?>
<!-- Generator: Adobe Illustrator 24.0.3, SVG Export Plug-In . SVG Version: 6.00 Build 0)  -->
<svg version="1.1" id="Layer_1" xmlns="http://www.w3.org/2000/svg" xmlns:xlink="http://www.w3.org/1999/xlink" x="0px" y="0px"
	 viewBox="0 0 81 81" style="enable-background:new 0 0 81 81;" xml:space="preserve">
<style type="text/css">
	.st0{fill:#BE1823;}
	.st1{fill:none;}
</style>
<g>
	<g>
		<path class="st0" d="M36.9,17.4c0,0-10.8-5.4-23.6,2.2c0,0-6.2,3.4,0,3.4c5.7,0,12.8,1.3,17.4,4.3c0.8,0.5,1.9,0.4,2.6-0.3
			C35.1,25.3,37.2,21.2,36.9,17.4z"/>
		<path class="st0" d="M34.3,27.9c1.5-1,3.5-3.3,4.6-9.3c0,0,7.4-3.7,22.7,9.6c0,0-3.4,12.2-10.1,10c-5-1.7-13.5-6.3-17.1-8.4
			C33.7,29.3,33.7,28.4,34.3,27.9z"/>
		<path class="st0" d="M62.5,29.5c0,0-3.2,8.6-6.7,9.1c0,0-3.6,6.3,7.5,10.5S71.3,31.1,62.5,29.5z"/>
		<path class="st0" d="M54.2,42.6c0,0,4.2,7.7,9.7,7.7s-14.5,16.9-17.5,15c-3-2-12-7.6-6-12.2S53.5,41.2,54.2,42.6z"/>
	</g>
	<rect x="0.5" y="0.5" class="st1" width="80" height="80"/>
</g>
</svg>
