<?xml version="1.0" encoding="utf-8"?>
<!-- Generator: Adobe Illustrator 24.0.3, SVG Export Plug-In . SVG Version: 6.00 Build 0)  -->
<svg version="1.1" id="Layer_1" xmlns="http://www.w3.org/2000/svg" xmlns:xlink="http://www.w3.org/1999/xlink" x="0px" y="0px"
	 viewBox="0 0 81 81" style="enable-background:new 0 0 81 81;" xml:space="preserve">
<style type="text/css">
	.st0{fill:#BE1823;}
	.st1{fill:none;}
</style>
<g>
	<path class="st0" d="M57.7,37.2c0-4.1,0.6-6.5,1.1-8c0.4-0.5,0.8-1.1,1.1-1.8c0,0,0,0,0,0l0,0c0.4-1.1,0.6-2.4,0.6-3.8
		c-0.3-3.9-2.8-6.9-5.7-6.7c-2.9,0.2-5,3.5-4.8,7.4c0.1,1.5-0.1,1.7,0.5,2.8l2.4,3c0,0,4,10.9,0.7,13.8C50.2,46.8,36,19.9,36,19.9
		l-0.4-4c-0.3-1.1-0.5-1.1-1.3-2.1c-2.4-3.1-6.1-4.2-8.5-2.4c-2.3,1.8-2.3,5.7,0.1,8.8c0.8,1.1,1.9,1.9,2.9,2.5l2.9,0.7
		c0,0,15.8,18.9,15,20.7s-4,2.5-23-14.7L22,26.1c-0.5-0.8-1-1.3-1.8-2c-3-2.4-7-2.6-8.8-0.3c-1.8,2.3-0.8,6.1,2.2,8.5
		c1.2,1,2.5,1.4,3.8,1.6l3,0c0,0,23.5,14.7,22.4,18.1c0,0-8.7-1.4-22-1.2c-3.9,0.3-7.8,2.8-7.6,5.7c0.2,2.9,3.5,5,7.4,4.8
		c0.8-0.1,3.3-1.3,3.9-1.8l2.2-1.8c0.6-0.5,1.4-0.8,2.2-0.9c3.7-0.4,14.6-1.2,20.8,2.5c7.6,4.4,10.9,11.2,10.9,11.2l9.9-7.3
		C70.5,63.3,58.8,52.6,57.7,37.2z"/>
	<rect x="0.5" y="0.5" class="st1" width="80" height="80"/>
</g>
</svg>
