<?xml version="1.0" encoding="utf-8"?>
<!-- Generator: Adobe Illustrator 24.0.3, SVG Export Plug-In . SVG Version: 6.00 Build 0)  -->
<svg version="1.1" id="Layer_1" xmlns="http://www.w3.org/2000/svg" xmlns:xlink="http://www.w3.org/1999/xlink" x="0px" y="0px"
	 viewBox="0 0 81 81" style="enable-background:new 0 0 81 81;" xml:space="preserve">
<style type="text/css">
	.st0{fill:#BE1823;}
	.st1{fill:none;}
</style>
<g>
	<path class="st0" d="M49.3,33.3c0,0-1.5,14.3-15.1,13.7C22.2,46.4,22,33.8,22,33.8s0.6-10.2,10.7-10.7c8.6-0.4,8.8,9,8.8,9
		s1.4,8.1-9.3,8.1c0,0-2.4-1,0-2.5c0,0,10,0.8,5.9-8.1c-4.1-8.8-13-0.9-12.7,4c0.3,5,3,10.6,9.1,10.4S46.9,39.4,47,31.4
		c0.1-8-7.4-15.2-15.9-15.1c-8.5,0.1-19.8,5.3-20.5,20.3c-0.3,5.2,1.3,10.2,3.8,14.3c0.1,0,4.2-0.5,5.2-2.5c1-2-2.5,6-2.6,6.1
		c3.4,4,7.7,6.8,11.6,7.4c1.9,0.3,3.8,0.5,5.5,0.6c1.3-1.3,2.5-3.3,3.2-6.5c1.3-6.1,1.3,1.8,0.4,6.5c5.7-0.2,9.3-1.4,9.3-1.4
		s2.6-0.6,6-2.3c0-1.3-0.2-3.4-1-4.4c-1.2-1.4,2.2,0.4,2.9,3.4c0.1,0,0.2-0.1,0.2-0.1c-0.1-2-1-8.5-3.4-9.7c-3-1.6,4.5,1.3,6.5,7.7
		c5.5-4.1,11.2-10.9,12.3-22.1L49.3,33.3z"/>
	<rect x="0.5" y="0.5" class="st1" width="80" height="80"/>
</g>
</svg>
