<?xml version="1.0" encoding="utf-8"?>
<!-- Generator: Adobe Illustrator 24.0.3, SVG Export Plug-In . SVG Version: 6.00 Build 0)  -->
<svg version="1.1" id="Layer_1" xmlns="http://www.w3.org/2000/svg" xmlns:xlink="http://www.w3.org/1999/xlink" x="0px" y="0px"
	 viewBox="0 0 81 81" style="enable-background:new 0 0 81 81;" xml:space="preserve">
<style type="text/css">
	.st0{fill:#BE1823;}
	.st1{fill:none;}
</style>
<g>
	<path class="st0" d="M43.1,65.6c0,0-10-9.3-3.2-18.1s12.7-10.1,16.8-5.2s2,6.5,3.6,6.8s6.7-4.3,2.8-5.4S56,41,57.7,40.2
		s7-2.6,8.1,0.8s3.6,3.8,4.6,0.6s-2.2-3-3.2-2.6s-5.7-2.6-2.7-4.2s7.5-0.7,4.4-3.8s-6.3-3.2-6.3-0.7c0,2.6-2.2,7.9-5.8,7.3
		s-3.2-4.2-0.5-4.4s3.1-1.2,2.2-3.1c-0.9-1.9-5.1-2.6-5,0c0.1,2.6-0.5,7.9-6.9,7.4s4.3-15.6,7.5-15s2.6-4.3,0-4.7s-4.1-0.9-4.2,1.3
		s-0.1,4.3-1.6,3.5s-4.4-3.3-2.4-5.2s1.2-5.2-2-4.4s-7.7,7.4-3.9,7.4s7,1.1,5.7,4s-4.2,9.8-2.7,12.1s0.4,4.4-2.3,1.6
		s-4.8-5.3-7.8-6.3c-3-1-5.9-5.8-2.8-7.3c3.1-1.5,7.5-1.1,3.8-5.7s-4.7-2.4-5.1-0.4c-0.4,2,1.2,5.4-2.6,6.9s-9.3-2.1-6.3-3.9
		c3-1.9,4-5.4,0-5.4s-9.4,3.9-5.1,5.4c4.3,1.5,3.8,5.1,1.2,3.8S9,23.1,11,27.2s3.9,4.4,5.8,1.3s-1.1,3.1,1.3,4
		c2.4,0.9,0.7-4.6,3.9-4c3.2,0.5,5.2,1.1,5.9,3.4c0.9,3.1-0.7,3.1,2.2,3.7c2.8,0.6,10.1,5.3,8.9,8.4s-2.6,8.5-4,8.1s-2-4.3-1.1-7.4
		s-0.5-5.4-2.4-4.3c-1.9,1.1-1.2,3.6-0.3,4.7c0.9,1.1,1.6,5.5-1.3,3.9c-3-1.6-5.8-4.6-4.6-8.5s0.3-5.6-1.6-4.9s-1.9,4.8-1.2,5.3
		s-0.3,0.5-2.6,0.6s-3.8,2.2-1.2,2.3s6.6,1.6,3.2,2.4s-6.5,0-6.1,3c0.4,3,1.5,4.6,3.8,0.8c2.3-3.8,4.4-1.8,5.9-0.7
		c1.5,1.1,14.3,17.6,14,18.5S43.1,65.6,43.1,65.6z"/>
	<rect x="0.5" y="0.5" class="st1" width="80" height="80"/>
</g>
</svg>
